PathFileType	4	(X/Y/Z)	S01_0013_Gait_markers.trc
DataRate	CameraRate	NumFrames	NumMarkers	Units	OrigDataRate	OrigDataStartFrame	OrigNumFrames
250.000000	250.000000	4	54	mm	250.000000	0	349
Frame#	Time	HEAD_ANT			R_HEAD			L_HEAD			C7			R_BACK			L_BACK			STERNUM			R_ACROMION			R_HUM_PROX			R_HUM_ANT			R_HUM_POST			R_ELBOW_LAT			R_ELBOW_MED			R_FOREARM			R_WIRST_LAT			R_WRITS_MED			R_HAND			L_ACROMION			L_HUM_PROX			L_HUM_ANT			L_HUM_POST			L_ELBOW_LAT			L_ELBOW_MED			L_FOREARM			L_WRIST_LAT			L_WIRST_MED			L_HAND			R_ILIAC			SACRUM			L_ILIAC			R_GTROCH			R_THIGH__1			R_THIGH_2			R_THIGH_3			R_THIGH_4			R_SHANK_1			R_SHANK_2			R_SHANK_3			R_SHANK_4			R_HEEL			R_FOOT_LAT			R_FOOT_MED			L_GTROCH			L_THIGH_1			L_THIGH_2			L_THIGH_3			L_THIGH_4			L_SHANK_1			L_SHANK_2			L_SHANK_3			L_SHANK_4			L_HEEL			L_FOOT_LAT			L_FOOT_MED			
		X1	Y1	Z1	X2	Y2	Z2	X3	Y3	Z3	X4	Y4	Z4	X5	Y5	Z5	X6	Y6	Z6	X7	Y7	Z7	X8	Y8	Z8	X9	Y9	Z9	X10	Y10	Z10	X11	Y11	Z11	X12	Y12	Z12	X13	Y13	Z13	X14	Y14	Z14	X15	Y15	Z15	X16	Y16	Z16	X17	Y17	Z17	X18	Y18	Z18	X19	Y19	Z19	X20	Y20	Z20	X21	Y21	Z21	X22	Y22	Z22	X23	Y23	Z23	X24	Y24	Z24	X25	Y25	Z25	X26	Y26	Z26	X27	Y27	Z27	X28	Y28	Z28	X29	Y29	Z29	X30	Y30	Z30	X31	Y31	Z31	X32	Y32	Z32	X33	Y33	Z33	X34	Y34	Z34	X35	Y35	Z35	X36	Y36	Z36	X37	Y37	Z37	X38	Y38	Z38	X39	Y39	Z39	X40	Y40	Z40	X41	Y41	Z41	X42	Y42	Z42	X43	Y43	Z43	X44	Y44	Z44	X45	Y45	Z45	X46	Y46	Z46	X47	Y47	Z47	X48	Y48	Z48	X49	Y49	Z49	X50	Y50	Z50	X51	Y51	Z51	X52	Y52	Z52	X53	Y53	Z53	X54	Y54	Z54	

1	0	109.0369720458984	1732.953491210938	-314.9880065917965	48.92708206176758	1681.381469726562	-239.4579467773434	51.30015563964844	1687.326049804688	-387.848968505859	-88.99362945556641	1516.574951171875	-321.6119384765622	-165.3637390136719	1321.006958007812	-253.9581909179685	-162.1466674804688	1324.631958007812	-396.8136596679685	86.87802124023438	1351.96728515625	-313.3204345703122	-17.85573577880859	1471.195678710938	-146.1511840820309	-76.48813629150391	1316.689208984375	-55.12227630615205	-22.42286109924316	1227.774291992188	-38.98041152954075	-143.9506530761719	1238.197509765625	-48.4894599914548	-104.078742980957	1129.9716796875	-30.93037796020483	-112.2329330444336	1122.13916015625	-111.2949523925779	-13.08706378936768	944.4354858398438	-3.521535158157139	29.23302841186523	875.3817138671875	-32.5461769104002	-43.90983581542969	855.954345703125	-8.978957176208306	19.1976146697998	790.7462158203125	25.69772338867205	-6.024827480316162	1469.33935546875	-485.051605224609	-14.55399799346924	1305.288208007813	-584.2330932617184	51.94874572753906	1228.007202148438	-577.1264038085935	-66.90235900878906	1225.088623046875	-615.2791748046873	0.9567416310310364	1124.512817382813	-619.699768066406	-58.74610137939453	1113.245849609375	-568.8419189453123	135.4684143066406	974.5845947265626	-571.0943603515623	173.2530059814453	927.6947631835939	-510.560852050781	141.6817321777344	890.2421875000001	-574.2001953124998	226.7744140625	856.9785766601564	-545.0358276367185	-19.49804496765137	1068.1240234375	-146.4401550292966	-151.3113250732422	1040.34326171875	-306.4481506347654	-37.22341156005859	1061.3896484375	-489.438293457031	-53.1607666015625	915.9600219726562	-126.3222045898436	56.18781661987305	645.2255859375	-147.6501007080077	105.881477355957	675.8134155273438	-141.8751373291014	138.9828186035156	578.9769897460938	-176.6826324462889	75.36528015136719	566.9821166992188	-167.8047943115233	119.8284683227539	350.0726623535157	-164.7159729003905	178.9152679443359	343.9739990234376	-176.8567504882812	196.5963745117188	261.0168762207032	-193.7303161621093	133.4566040039062	250.7649383544922	-186.3743896484374	155.7382507324219	37.47996902465827	-275.3259887695312	314.5939331054688	46.82038879394536	-183.4334106445312	365.1140441894531	79.89752197265631	-266.9520263671875	-83.19000244140625	953.1983032226564	-487.1943054199216	-62.74310302734375	661.5559692382814	-473.6371459960936	-111.5884094238281	692.9792480468751	-485.8625488281248	-145.39453125	598.5314941406251	-452.5413818359374	-83.15245056152344	586.1267700195314	-448.4841003417968	-187.4734039306641	331.1860351562501	-433.3085937499999	-247.1329956054688	322.913055419922	-432.4474792480468	-267.6940002441406	240.1068420410157	-412.7626342773437	-203.8178405761719	233.0296020507813	-407.5580444335937	-341.22705078125	63.39245605468757	-334.0222778320312	-173.3797454833984	19.67042732238779	-411.9693298339844	-131.9827728271484	27.18740081787116	-306.9077453613281	
2	0.004	114.3541107177734	1731.9267578125	-314.3587951660152	54.14764022827148	1680.141967773438	-238.829437255859	56.71753311157227	1686.206420898438	-387.1962890624996	-83.93869018554688	1515.609130859375	-321.4692993164059	-160.3360748291016	1319.848266601562	-254.0129089355466	-156.9226684570312	1323.599487304688	-396.6942138671872	91.95371246337891	1350.739379882812	-312.776184082031	-12.86378383636475	1469.923583984375	-145.8870849609372	-71.70199584960938	1315.534057617188	-55.08987426757783	-17.72210693359375	1226.458374023438	-38.81186294555637	-139.2310180664062	1236.990356445312	-48.51938247680636	-99.28034973144531	1128.731567382812	-30.83470344543432	-107.5948791503906	1120.9130859375	-111.0998306274412	-8.627097129821777	943.1254272460938	-3.529201269149571	33.78586959838867	874.0719604492188	-32.14403152465801	-39.32574844360352	854.5398559570312	-8.943904876708794	23.4603099822998	789.5100708007812	25.54463768005389	-0.9073181748390198	1468.301025390625	-484.9896545410153	-9.01348876953125	1304.387573242188	-583.9340209960934	57.59517669677734	1227.257568359375	-577.0540771484373	-61.23263549804688	1224.156860351563	-615.152404785156	6.788285255432129	1123.727905273438	-619.538146972656	-53.10098266601562	1112.256469726563	-568.798889160156	141.51904296875	973.9530029296876	-570.5182495117185	179.2499237060547	927.2852783203126	-510.043029785156	148.0400848388672	889.8040161132814	-573.6357421874998	233.0270843505859	856.7211914062501	-544.1879272460935	-14.4446907043457	1066.887573242188	-146.3460693359373	-146.103271484375	1039.345092773438	-306.3228759765623	-31.9386157989502	1060.342651367188	-489.407775878906	-48.34271621704102	914.6098022460938	-126.5209960937498	60.31497955322266	643.4104614257812	-147.8082275390624	110.1075057983398	674.381103515625	-142.431671142578	143.1887359619141	577.7372436523438	-176.8641662597655	79.49076080322266	565.3250122070312	-168.2542266845702	127.9662551879883	348.7693481445313	-165.0650939941405	187.2571258544922	344.1713867187501	-177.4580841064452	206.6015625	261.5220947265626	-194.0699005126953	143.4723358154297	249.9913024902344	-187.016616821289	169.2104644775391	37.19689178466803	-276.304931640625	328.4015197753906	49.13117599487309	-184.8415069580078	377.8495788574219	83.03193664550787	-268.652099609375	-78.46347045898438	952.5047607421876	-487.2149658203123	-59.36549758911133	660.9525756835939	-473.8373718261717	-108.1634292602539	692.7445678710939	-486.2238464355467	-142.6464385986328	597.6131591796876	-451.6167907714843	-80.03519439697266	586.0357666015626	-448.739532470703	-185.779052734375	331.2142333984376	-433.2414245605468	-245.7475738525391	323.2525024414064	-432.5516662597656	-266.6594848632812	240.3680267333985	-412.6913146972656	-202.8466796875	233.1763458251954	-407.7643432617187	-341.0458374023438	64.05575561523445	-334.0535278320312	-173.4512176513672	19.64102363586435	-411.9913330078125	-131.9526062011719	27.22063064575202	-306.9865112304688	
3	0.008	119.6413726806641	1730.644775390625	-313.6018676757809	59.40153884887695	1678.914672851562	-238.3402099609371	61.66305160522461	1685.282470703125	-386.6655273437496	-78.64309692382812	1514.595581054688	-321.1290588378903	-155.1983032226562	1318.731689453125	-253.8937683105466	-151.8373413085938	1322.649047851562	-396.528869628906	97.22019958496094	1349.453369140625	-312.833312988281	-7.787365436553955	1468.735473632812	-145.5755920410153	-66.79199981689453	1314.15625	-54.9432716369626	-13.01182651519775	1225.272705078125	-38.55426788330051	-134.3632049560547	1235.811889648438	-48.46774673461886	-94.44773101806641	1127.579956054688	-30.84338760375952	-102.8528671264648	1119.777099609375	-111.3403854370115	-4.151567459106445	941.8922729492188	-3.433349609374791	38.36315536499023	872.830810546875	-32.11318969726543	-34.77783203125	853.2457885742188	-9.144800186157036	27.9363842010498	788.0816040039062	25.50412750244158	4.50896167755127	1467.440063476562	-484.7455444335934	-3.558071613311768	1303.462158203125	-583.9047851562497	63.15667343139648	1226.467651367188	-576.9683837890623	-55.76372909545898	1223.21875	-615.2056884765623	12.56282901763916	1122.765014648438	-619.4989624023435	-47.38085556030273	1111.2646484375	-568.869201660156	147.41650390625	973.4370117187501	-570.1007080078123	185.0738983154297	926.8684082031251	-509.3728942871091	154.2465515136719	889.2000732421876	-573.1344604492185	239.3029479980469	856.5522460937501	-543.4247436523435	-9.01210880279541	1065.460083007812	-146.0489349365232	-141.8204956054688	1038.6455078125	-306.6870117187498	-26.88307952880859	1059.282104492188	-489.3653564453123	-43.36474609375	913.0603637695312	-126.713554382324	64.486083984375	641.6267700195312	-147.8535156249999	114.4502334594727	672.7276000976562	-142.0594940185545	147.5448303222656	576.2096557617188	-176.8783111572264	83.7191162109375	563.7865600585938	-168.6110992431639	136.0508728027344	347.9117126464844	-165.4483184814452	195.4187469482422	344.2200622558594	-178.0473632812499	216.1539459228516	261.9049987792969	-195.6328735351562	153.0751800537109	249.1154022216797	-187.9573974609374	182.7737731933594	37.02793121337897	-276.8695983886719	341.9480285644531	51.43185043334965	-186.5065002441406	390.5392150878906	86.10475921630865	-270.6122131347656	-73.64481353759766	951.9468383789064	-487.3393554687498	-55.91152954101562	660.3632202148439	-474.1008911132811	-104.6195526123047	692.2122192382814	-485.9470825195311	-139.346923828125	597.4325561523439	-451.9915771484374	-76.82167816162109	585.3749389648439	-448.684112548828	-184.1248474121094	331.2982177734376	-433.3482360839843	-244.2259674072266	323.7489013671876	-432.8197021484374	-265.6357727050781	240.7642974853516	-412.6713256835937	-201.8763427734375	233.1545715332032	-407.8242187499999	-340.8074951171875	64.78194427490241	-334.0879821777344	-173.4356384277344	19.62082481384287	-411.9645690917969	-131.9369964599609	27.28647804260261	-306.995361328125	
4	0.012	124.9095077514648	1729.676147460938	-313.1174621582027	64.62474060058594	1677.610961914062	-237.9025726318356	67.07457733154297	1684.219848632812	-386.1084289550777	-73.57787322998047	1513.483154296875	-320.9920043945309	-150.1072998046875	1317.549560546875	-253.8253784179685	-146.7331085205078	1321.739135742188	-396.3768615722653	102.3197174072266	1348.398315429688	-312.5203552246091	-2.709851026535034	1467.440307617188	-145.19172668457	-61.95102691650391	1312.875732421875	-54.90061569213838	-8.183160781860352	1223.823974609375	-38.41902160644504	-129.4515380859375	1234.4716796875	-48.61079406738254	-89.82733154296875	1126.282470703125	-30.71141624450659	-102.1880416870117	1119.14306640625	-112.3610687255857	0.4709202647209167	940.3641357421875	-3.314177036285192	43.016357421875	871.343017578125	-32.07317352294903	-30.5057430267334	851.89599609375	-9.698461532592585	32.44777679443359	786.6529541015625	25.57511901855486	9.797890663146973	1466.327514648438	-484.3168334960934	1.900124669075012	1302.537109375	-583.6755371093747	68.52433776855469	1225.542846679688	-576.7850341796873	-50.05888366699219	1222.284301757813	-614.7833862304685	18.23985481262207	1121.847290039063	-619.453674316406	-41.7980842590332	1110.296142578125	-568.9929199218748	153.2863006591797	972.9387207031251	-569.704162597656	190.9433135986328	926.4808959960939	-508.9984436035154	160.4547424316406	888.7605590820314	-572.6242065429685	245.5081329345703	856.2213134765626	-542.6959838867185	-3.796793937683105	1064.2431640625	-146.0736389160154	-136.1257934570312	1037.4091796875	-305.8647766113279	-21.80063056945801	1058.297607421875	-489.3594665527341	-38.40096282958984	911.65625	-126.9858551025389	68.71437072753906	639.9287719726562	-147.9151763916014	118.5668106079102	671.0885009765625	-142.483428955078	151.6475067138672	574.5176391601562	-177.3372802734374	87.40576171875	561.3668823242188	-171.3770904541014	143.9849243164062	346.7676086425782	-166.1955261230468	203.3560791015625	344.2779846191407	-178.7637939453124	225.4088134765625	262.3091125488282	-196.4595642089843	162.8152465820312	248.6487274169922	-187.9181823730468	195.3272705078125	37.18792343139655	-277.5929260253906	355.2106018066406	53.87258911132817	-187.7163848876953	402.5751342773438	89.18934631347662	-272.3957214355469	-68.78391265869141	951.2919311523439	-487.436096191406	-52.42280197143555	659.8783569335939	-474.2771911621092	-101.0137786865234	691.9320678710939	-486.3238830566405	-136.1124267578125	597.0625000000001	-451.9483947753905	-73.67752838134766	585.0628051757814	-449.3855895996093	-182.3669281005859	331.3655090332032	-433.6928405761718	-242.6381530761719	323.9989318847657	-432.8858947753906	-264.4984741210938	241.1351776123048	-412.7818908691406	-200.6824645996094	233.312469482422	-408.0715026855468	-340.5761108398438	65.68363952636726	-334.1302185058594	-173.4529571533203	19.63387870788583	-411.9909057617188	-131.9261627197266	27.32089233398444	-307.0747680664062	
